<?xml version="1.0" encoding="iso-8859-1"?>
<!-- Generator: Adobe Illustrator 19.0.0, SVG Export Plug-In . SVG Version: 6.00 Build 0)  -->
<svg version="1.1" id="Layer_1" xmlns="http://www.w3.org/2000/svg" xmlns:xlink="http://www.w3.org/1999/xlink" x="0px" y="0px"
	 viewBox="0 0 512 512" style="enable-background:new 0 0 512 512;" xml:space="preserve">
<g>
	<g>
		<path d="M442.687,220.496c0-22.815-17.691-41.562-40.074-43.28c2.727-5.677,4.257-12.031,4.257-18.738
			c0-23.941-19.478-43.42-43.421-43.42c-14.854,0-27.985,7.501-35.818,18.91c-7.832-11.409-20.963-18.91-35.816-18.91
			c-10.764,0-20.618,3.946-28.213,10.456v-21.307c0-49.074,39.924-88.999,88.998-88.999V0c-57.46,0-104.206,46.746-104.206,104.207
			v21.307c-7.595-6.51-17.449-10.456-28.213-10.456c-14.853,0-27.984,7.501-35.816,18.91c-7.832-11.409-20.964-18.91-35.817-18.91
			c-23.942,0-43.421,19.478-43.421,43.42c0,6.707,1.53,13.063,4.257,18.738c-22.383,1.716-40.074,20.465-40.074,43.28
			c0,22.817,17.693,41.565,40.078,43.28c-2.729,5.679-4.261,12.037-4.261,18.746c0,22.814,17.69,41.56,40.07,43.28
			c-2.725,5.675-4.253,12.026-4.253,18.731c0,22.816,17.692,41.563,40.075,43.28c-2.728,5.678-4.258,12.034-4.258,18.741
			c0,22.817,17.693,41.565,40.077,43.28c-2.729,5.679-4.261,12.037-4.261,18.746c0,23.942,19.478,43.421,43.421,43.421
			s43.421-19.478,43.421-43.421c0-6.71-1.531-13.069-4.261-18.746c22.384-1.714,40.077-20.464,40.077-43.28
			c0-6.708-1.531-13.065-4.258-18.741c22.384-1.715,40.076-20.464,40.076-43.28c0-6.704-1.529-13.056-4.253-18.731
			c22.381-1.719,40.07-20.466,40.07-43.28c0-6.71-1.531-13.069-4.26-18.746C424.994,262.061,442.687,243.313,442.687,220.496z
			 M363.449,130.266c15.557,0,28.213,12.655,28.213,28.212c0,15.558-12.656,28.214-28.213,28.214
			c-15.557,0-28.214-12.656-28.214-28.214C335.236,142.922,347.893,130.266,363.449,130.266z M327.632,192.284
			c15.557,0,28.214,12.656,28.214,28.213c0,15.556-12.656,28.213-28.214,28.213c-15.556,0-28.212-12.656-28.212-28.213
			C299.42,204.94,312.076,192.284,327.632,192.284z M255.999,316.319c15.557,0,28.213,12.656,28.213,28.213
			c0,15.557-12.656,28.213-28.213,28.213s-28.213-12.656-28.213-28.213C227.787,328.975,240.443,316.319,255.999,316.319z
			 M220.183,310.734c-15.556,0-28.212-12.656-28.212-28.213s12.656-28.212,28.212-28.212c15.557,0,28.213,12.655,28.213,28.212
			S235.739,310.734,220.183,310.734z M263.603,282.522c0-15.557,12.656-28.212,28.213-28.212c15.556,0,28.212,12.655,28.212,28.212
			c0,15.557-12.656,28.213-28.212,28.213C276.259,310.734,263.603,298.078,263.603,282.522z M291.816,130.266
			c15.556,0,28.212,12.655,28.212,28.212c0,15.558-12.656,28.214-28.212,28.214c-15.557,0-28.213-12.656-28.213-28.214
			C263.603,142.922,276.259,130.266,291.816,130.266z M255.999,192.284c15.557,0,28.213,12.656,28.213,28.213
			c0,15.556-12.656,28.213-28.213,28.213s-28.213-12.656-28.213-28.213C227.787,204.94,240.443,192.284,255.999,192.284z
			 M220.183,130.266c15.557,0,28.213,12.655,28.213,28.212c0,15.558-12.656,28.214-28.213,28.214
			c-15.556,0-28.212-12.656-28.212-28.214C191.971,142.922,204.627,130.266,220.183,130.266z M184.367,192.283
			c15.556,0,28.212,12.656,28.212,28.213s-12.656,28.213-28.212,28.213c-15.557,0-28.213-12.656-28.213-28.213
			C156.154,204.94,168.81,192.283,184.367,192.283z M148.55,130.266c15.557,0,28.213,12.655,28.213,28.212
			c0,15.558-12.656,28.214-28.213,28.214c-15.557,0-28.213-12.656-28.213-28.214C120.337,142.922,132.994,130.266,148.55,130.266z
			 M112.733,248.708c-15.556,0.001-28.213-12.656-28.213-28.213s12.656-28.213,28.213-28.213s28.213,12.656,28.213,28.213
			S128.289,248.708,112.733,248.708z M148.549,310.734c-15.556,0-28.213-12.656-28.213-28.213s12.656-28.212,28.213-28.212
			c15.557,0,28.213,12.655,28.213,28.212S164.106,310.734,148.549,310.734z M184.367,372.744c-15.557,0-28.213-12.656-28.213-28.213
			c0-15.557,12.656-28.213,28.213-28.213c15.556,0,28.212,12.656,28.212,28.213C212.579,360.088,199.923,372.744,184.367,372.744z
			 M220.183,434.766c-15.556,0-28.212-12.656-28.212-28.214c0-15.557,12.656-28.212,28.212-28.212
			c15.557,0,28.213,12.655,28.213,28.212C248.396,422.11,235.739,434.766,220.183,434.766z M255.999,496.792
			c-15.557,0-28.213-12.656-28.213-28.213c0-15.557,12.656-28.212,28.213-28.212s28.213,12.655,28.213,28.212
			C284.212,484.136,271.556,496.792,255.999,496.792z M291.816,434.766c-15.557,0-28.213-12.656-28.213-28.214
			c0-15.557,12.656-28.212,28.213-28.212c15.556,0,28.212,12.655,28.212,28.212C320.028,422.11,307.372,434.766,291.816,434.766z
			 M327.632,372.744c-15.556,0-28.212-12.656-28.212-28.213c0-15.557,12.656-28.213,28.212-28.213
			c15.557,0,28.214,12.656,28.214,28.213C355.846,360.088,343.19,372.744,327.632,372.744z M363.449,310.734
			c-15.557,0-28.214-12.656-28.214-28.213s12.656-28.212,28.214-28.212c15.557,0,28.213,12.655,28.213,28.212
			S379.006,310.734,363.449,310.734z M399.266,248.709c-15.557,0-28.213-12.656-28.213-28.213c0-15.557,12.656-28.213,28.213-28.213
			c15.557,0,28.213,12.656,28.213,28.213C427.479,236.052,414.822,248.709,399.266,248.709z"/>
	</g>
</g>
<g>
</g>
<g>
</g>
<g>
</g>
<g>
</g>
<g>
</g>
<g>
</g>
<g>
</g>
<g>
</g>
<g>
</g>
<g>
</g>
<g>
</g>
<g>
</g>
<g>
</g>
<g>
</g>
<g>
</g>
</svg>
